<?xml version="1.0" encoding="utf-8"?>
<!-- Generator: Adobe Illustrator 27.5.0, SVG Export Plug-In . SVG Version: 6.00 Build 0)  -->
<svg version="1.1" xmlns="http://www.w3.org/2000/svg" xmlns:xlink="http://www.w3.org/1999/xlink" x="0px" y="0px"
	 viewBox="0 0 750 500" style="enable-background:new 0 0 750 500;" xml:space="preserve">
<g id="Background_Simple">
	<g>
		<path style="fill:#92E3A9;" d="M711.087,117.463c27.026,36.116,33.517,81.779,32.172,125.747
			c-1.195,39.06-9.153,76.631-30.912,109.515c-28.364,42.867-70.566,74.464-116.904,95.744
			c-11.876,5.454-24.032,10.291-36.385,14.555c-106.97,36.919-225.767,35.199-335.082,9.939
			c-22.042-5.093-43.802-11.581-64.832-19.946c-49.426-19.66-95.955-50.279-120.304-99.036
			c-11.776-23.58-18.177-49.077-21.161-75.169c-3-26.231-3.42-52.814,0.906-78.922C34.391,104.499,117.137,2.055,223.801,29.089
			c23.212,5.883,42.02,19.131,63.597,28.571c26.067,11.404,43.988,1.629,52.134-7.332c8.146-8.961-41.545-23.623,13.034-38.286
			S505.71,5.525,596.131,44.626c39.761,17.194,83.77,34.3,111.863,68.872C709.047,114.794,710.079,116.116,711.087,117.463z"/>
		<path style="opacity:0.7;fill:#FFFFFF;" d="M711.087,117.463c27.026,36.116,33.517,81.779,32.172,125.747
			c-1.195,39.06-9.153,76.631-30.912,109.515c-28.364,42.867-70.566,74.464-116.904,95.744
			c-11.876,5.454-24.032,10.291-36.385,14.555c-106.97,36.919-225.767,35.199-335.082,9.939
			c-22.042-5.093-43.802-11.581-64.832-19.946c-49.426-19.66-95.955-50.279-120.304-99.036
			c-11.776-23.58-18.177-49.077-21.161-75.169c-3-26.231-3.42-52.814,0.906-78.922C34.391,104.499,117.137,2.055,223.801,29.089
			c23.212,5.883,42.02,19.131,63.597,28.571c26.067,11.404,43.988,1.629,52.134-7.332c8.146-8.961-41.545-23.623,13.034-38.286
			S505.71,5.525,596.131,44.626c39.761,17.194,83.77,34.3,111.863,68.872C709.047,114.794,710.079,116.116,711.087,117.463z"/>
	</g>
</g>
<g id="Clouds">
	<g>
		<path style="fill:none;stroke:#263238;stroke-miterlimit:10;" d="M602.811,151.808c-2.331-1.316-5.281-2.499-8.927-3.15
			c-11.599-2.071-16.569,7.87-17.812,10.356c-1.243,2.485-5.799,2.9-5.799,2.9s-4.971,0.414-6.214,1.243
			c-1.243,0.828-4.557,1.243-4.557,1.243h-7.042h185.162c0,0-2.485-13.256-13.67-17.398c-6.465-2.394-17.398,10.77-22.783,0.414
			c0,0-0.518-0.958-1.605-2.434"/>
		<path style="fill:none;stroke:#263238;stroke-miterlimit:10;" d="M694.543,139.441c-4.557-4.142-11.599-8.595-21.54-9.838
			c-19.883-2.485-27.339,15.741-28.582,18.226c-1.243,2.485-7.87-2.9-12.841-1.657c-4.971,1.243-9.113,7.87-9.113,7.87
			s-1.657-2.071-6.214-0.414c-4.557,1.657-6.214,4.557-6.214,4.557s-0.925-1.514-3.003-3.367"/>
	</g>
	<g>
		<path style="fill:none;stroke:#263238;stroke-miterlimit:10;" d="M80.352,86.197h117.191c0,0-2.485-13.256-13.67-17.398
			c-6.465-2.394-17.398,10.77-22.783,0.414c0,0-1.626-3.008-5.167-6.576"/>
		<path style="fill:none;stroke:#263238;stroke-miterlimit:10;" d="M153.077,60.037c-4.554-3.768-11.17-7.513-20.154-8.636
			c-19.883-2.485-27.339,15.741-28.582,18.226c-1.243,2.485-7.87-2.9-12.841-1.657c-4.971,1.243-9.113,7.871-9.113,7.871
			s-1.657-2.071-6.214-0.414c-4.556,1.657-6.214,4.557-6.214,4.557s-4.556-7.456-16.155-9.527
			c-11.598-2.071-16.569,7.87-17.812,10.356c-1.243,2.485-5.799,2.9-5.799,2.9s-4.971,0.414-6.214,1.243s-4.556,1.243-4.556,1.243
			h-7.042h61.974"/>
	</g>
	<g>
		<g>
			<path style="fill:none;stroke:#263238;stroke-miterlimit:10;" d="M575.416,104.852c-3.971-7.535-10.692-16.088-21.689-20.161
				c-12.714-4.709-34.213,21.18-44.803,0.815c0,0-16.292-30.14-55.393-35.028c-12.128-1.516-21.904,0.886-29.694,5.068"/>
			<path style="fill:none;stroke:#263238;stroke-miterlimit:10;" d="M367.707,118.904h212.902c0,0-0.305-1.629-1.107-4.2"/>
			<path style="fill:none;stroke:#263238;stroke-miterlimit:10;" d="M416.135,60.689c-11.914,9.663-17.4,22.808-18.811,25.631
				c-2.444,4.888-15.477-5.702-25.253-3.258s-17.921,15.477-17.921,15.477s-3.258-4.073-12.219-0.815s-12.219,8.961-12.219,8.961
				s-8.961-14.663-31.769-18.736c-22.809-4.073-32.584,15.477-35.028,20.365c-2.444,4.888-11.404,5.702-11.404,5.702
				s-9.775,0.815-12.219,2.444c-2.444,1.629-8.961,2.444-8.961,2.444h-13.848h143.228"/>
		</g>
		<path style="fill:none;stroke:#263238;stroke-miterlimit:10;" d="M548.123,109.03c0,0-4.817-8.911-16.377-10.356
			s-15.895,9.152-16.618,10.597c-0.722,1.445-4.576-1.686-7.466-0.963c-2.89,0.723-5.298,4.576-5.298,4.576
			s-0.963-1.204-3.612-0.241c-2.649,0.963-3.613,2.649-3.613,2.649s-2.649-4.335-9.392-5.539c-6.743-1.204-9.633,4.576-10.356,6.021
			s-3.372,1.686-3.372,1.686s-2.89,0.241-3.612,0.722c-0.723,0.482-2.649,0.723-2.649,0.723h-4.094h107.652
			c0,0-1.445-7.707-7.947-10.115C557.61,107.397,551.254,115.05,548.123,109.03z"/>
	</g>
</g>
<g id="Mountains">
	<g>
		<g>
			<path style="fill:#FFFFFF;stroke:#263238;stroke-miterlimit:10;" d="M676.391,196.35l-39.419,9.275l-46.375,7.729l-55.651-8.502
				l-34.782-13.14l-32.463-16.231l-30.144,2.319l-54.877-20.096c0,0-85.795-34.781-99.707-40.192
				c-13.913-5.41-20.869-10.821-23.961-10.821c-3.092,0-57.196-7.729-61.061-6.183c-3.865,1.546-70.336,34.782-72.655,34.782
				c-1.633,0-65.33,29.117-102.891,46.352c-1.535,6.088-2.815,12.183-3.82,18.25c-4.326,26.109-3.905,52.692-0.906,78.922
				c2.984,26.091,9.385,51.588,21.161,75.169c24.349,48.757,70.878,79.375,120.304,99.036c21.03,8.365,42.79,14.853,64.832,19.946
				c109.315,25.26,228.112,26.98,335.082-9.939c12.353-4.263,24.509-9.1,36.385-14.555c46.337-21.281,88.54-52.877,116.904-95.744
				c21.759-32.885,29.717-70.455,30.912-109.515c0.489-15.989-0.066-32.201-2.26-48.097l-8.957-0.309L676.391,196.35z"/>
			<path style="fill:#BABABA;stroke:#263238;stroke-miterlimit:10;" d="M732.041,194.804l-55.65,1.546l-39.419,9.275l-46.375,7.729
				l-55.651-8.502l-34.782-13.14l-32.463-16.231l-30.144,2.319l-54.877-20.096c0,0-85.795-34.781-99.707-40.192
				c-9.339-3.632-15.532-7.256-19.538-9.251l-0.519,0.053l-12.622,17.748l-22.948,5.1l4.25,15.298l16.529,9.835
				c0,0,13.218,17.362,14.068,19.912c0.85,2.55,77.971,77.475,77.971,77.475l134.507,79.759l177.726,81.592
				c23.262-17.251,43.841-37.959,59.951-62.307c21.759-32.885,29.717-70.455,30.912-109.515c0.489-15.989-0.066-32.201-2.26-48.097
				L732.041,194.804z"/>
		</g>
		<g>
			<polygon style="fill:#E5E5E5;stroke:#263238;stroke-miterlimit:10;" points="283.445,152.259 262.762,152.5 248.124,156.295 
				247.04,167.138 233.487,181.775 218.849,209.966 297.458,211.05 281.194,165.511 			"/>
			<path style="fill:#263238;stroke:#263238;stroke-miterlimit:10;" d="M280.172,116.383c-1.464-0.608-2.841-1.21-4.137-1.801
				c-0.123-0.056-0.245-0.112-0.366-0.168c-1.334-0.613-2.581-1.21-3.743-1.785c-0.038-0.019-0.076-0.038-0.115-0.057
				c-3.479-1.723-6.216-3.234-8.336-4.292c-0.002-0.001-0.004-0.002-0.005-0.003l-0.555,0.035l-0.644,1.229l21.474,18.79
				l61.061,26.279l-56.423-9.275l66.196,26.336c-0.479,6.085-1.436,14.286-3.095,13.734c-2.617-0.872-64.551-33.148-68.04-33.148
				c-3.489,0-9.595,7.851-9.595,7.851l16.335,38.114l59.077,36.466l77.242,3.928l6.106-15.701l-5.872-18.064l35.186,12.15
				l31.447,18.698l-23.798-6.799l31.447,20.398l-26.347-0.85c0,0,3.079,2.005,6.171,4.324s29.738,39.348,29.738,39.348
				l93.737,32.666l98.994,40.61c3.146-4.11,6.165-8.332,9.037-12.672c12.591-19.03,20.554-39.631,25.267-61.18l-59.677-77.418
				l20.096-14.686l8.653-3.933l-30.295,0.842l-39.419,9.275l-46.375,7.729l-55.651-8.502l-34.782-13.14l-32.463-16.231
				l-30.144,2.319l-54.877-20.096c0,0-85.795-34.781-99.707-40.192c-0.78-0.303-1.529-0.606-2.266-0.908
				C280.527,116.53,280.349,116.457,280.172,116.383z M361.038,164.66l14.686,3.865l-14.818-2.272L361.038,164.66z"/>
			<path style="fill:#E5E5E5;stroke:#263238;stroke-miterlimit:10;" d="M308.603,203.599l-23.845-8.743
				c0,0-6.359-3.974-10.333-6.359c-3.974-2.385-15.897-2.385-20.666-3.974c-4.769-1.59-11.127-7.153-11.127-7.153
				s-13.512-14.307-21.46-23.05c-7.948-8.743-32.588-7.948-38.946-3.179c-6.359,4.769-34.972,17.486-46.1,16.691
				c-11.127-0.795-19.076,15.102-35.767,30.203c-11.543,10.444-56.914,47.493-83.806,69.357c0.32,3.813,0.693,7.621,1.128,11.422
				c2.984,26.091,9.385,51.588,21.161,75.169c0.611,1.224,1.246,2.427,1.885,3.628l224.103-64.883
				c44.763-27.435,94.643-58.13,94.643-58.13s-18.281-9.538-20.665-11.127S308.603,203.599,308.603,203.599z"/>
			<g>
				<polygon style="fill:#263238;stroke:#263238;stroke-miterlimit:10;" points="50.285,328.386 83.667,291.03 90.821,298.978 
					102.743,291.03 141.69,265.595 117.845,315.669 40.747,341.898 				"/>
				<path style="fill:#263238;stroke:#263238;stroke-miterlimit:10;" d="M338.806,223.469c-2.384-1.59-30.203-19.871-30.203-19.871
					l-23.845-8.743c0,0-6.359-3.974-10.333-6.359c-3.974-2.385-15.897-2.385-20.666-3.974c-4.769-1.59-11.127-7.153-11.127-7.153
					s-13.512-14.307-21.46-23.05c-2.051-2.256-5.217-3.872-8.889-4.954l4.12,8.928c0,0,4.769,7.153,3.179,10.333
					c-1.59,3.179-10.333,15.102-10.333,15.102l-0.795,6.359l7.948,6.359c0,0,3.974,7.154,6.359,9.538
					c2.384,2.385,6.359,17.486,6.359,17.486l-10.333,8.743l-0.795,8.743c-9.538,6.359-17.486,17.486-20.666,20.665
					c-3.179,3.179-18.281,2.384-20.665,7.154c-2.384,4.769-7.153,24.64-7.153,24.64l-9.021,29.522l104.341-30.209
					c44.763-27.435,94.643-58.13,94.643-58.13S341.191,225.059,338.806,223.469z"/>
			</g>
		</g>
	</g>
</g>
<g id="Trees">
	<g>
		<path style="fill:#92E3A9;" d="M584.904,267.396c0,16.666-9.859,30.176-22.02,30.176c-12.162,0-22.02-13.51-22.02-30.176
			s9.859-73.945,22.02-73.945C575.045,193.451,584.904,250.73,584.904,267.396z"/>
		<path style="opacity:0.2;" d="M584.904,267.396c0,16.666-9.859,30.176-22.02,30.176c-12.162,0-22.02-13.51-22.02-30.176
			s9.859-73.945,22.02-73.945C575.045,193.451,584.904,250.73,584.904,267.396z"/>
		<polygon style="fill:#263238;" points="575.231,276.115 568.563,278.581 569.901,274.568 566.713,279.265 563.531,280.443 
			563.303,267.262 574.887,251.872 568.679,258.081 569.729,253.764 566.759,260 563.239,263.521 562.884,242.929 561.622,272.961 
			550.645,261.329 556.675,269.526 550.989,268.894 558.012,271.344 561.491,276.073 560.883,290.554 556.834,287.806 
			560.757,293.55 559.709,321.591 563.749,320.703 563.567,282.545 		"/>
	</g>
	<g>
		<path style="fill:#92E3A9;" d="M55.959,168.304c0,16.666-9.859,30.176-22.02,30.176c-12.162,0-22.02-13.51-22.02-30.176
			s9.859-73.945,22.02-73.945C46.101,94.359,55.959,151.638,55.959,168.304z"/>
		<path style="opacity:0.2;" d="M55.959,168.304c0,16.666-9.859,30.176-22.02,30.176c-12.162,0-22.02-13.51-22.02-30.176
			s9.859-73.945,22.02-73.945C46.101,94.359,55.959,151.638,55.959,168.304z"/>
		<polygon style="fill:#263238;" points="46.286,177.023 39.619,179.489 40.957,175.476 37.769,180.173 34.586,181.351 
			34.359,168.171 45.943,152.781 39.735,158.989 40.785,154.672 37.815,160.908 34.294,164.429 33.939,143.837 32.677,173.87 
			21.7,162.237 27.73,170.434 22.044,169.802 29.067,172.252 32.547,176.982 31.938,191.462 27.89,188.714 31.812,194.458 
			30.764,222.5 34.804,221.611 34.622,183.453 		"/>
	</g>
	<g>
		<path style="fill:#92E3A9;" d="M86.068,211.011c0,12.441-7.36,22.527-16.439,22.527s-16.439-10.086-16.439-22.527
			c0-12.442,7.36-55.202,16.439-55.202S86.068,198.57,86.068,211.011z"/>
		<path style="opacity:0.2;" d="M86.068,211.011c0,12.441-7.36,22.527-16.439,22.527s-16.439-10.086-16.439-22.527
			c0-12.442,7.36-55.202,16.439-55.202S86.068,198.57,86.068,211.011z"/>
		<polygon style="fill:#263238;" points="78.847,217.52 73.869,219.361 74.868,216.365 72.488,219.872 70.112,220.751 
			69.943,210.911 78.59,199.423 73.956,204.057 74.74,200.834 72.523,205.49 69.895,208.118 69.63,192.746 68.688,215.166 
			60.493,206.482 64.994,212.601 60.749,212.13 65.993,213.958 68.59,217.489 68.136,228.299 65.113,226.248 68.042,230.536 
			67.259,251.47 70.275,250.806 70.14,222.321 		"/>
	</g>
	<g>
		<path style="fill:#92E3A9;" d="M543.881,264.144c0,13.178-7.795,23.86-17.411,23.86c-9.616,0-17.411-10.683-17.411-23.86
			s7.795-58.468,17.411-58.468C536.086,205.676,543.881,250.966,543.881,264.144z"/>
		<path style="opacity:0.2;" d="M543.881,264.144c0,13.178-7.795,23.86-17.411,23.86c-9.616,0-17.411-10.683-17.411-23.86
			s7.795-58.468,17.411-58.468C536.086,205.676,543.881,250.966,543.881,264.144z"/>
		<polygon style="fill:#263238;" points="536.233,271.038 530.961,272.988 532.018,269.815 529.498,273.529 526.981,274.46 
			526.802,264.039 535.961,251.87 531.052,256.779 531.882,253.365 529.534,258.296 526.751,261.08 526.47,244.798 525.472,268.545 
			516.792,259.347 521.56,265.828 517.064,265.329 522.618,267.266 525.369,271.005 524.888,282.455 521.686,280.283 
			524.788,284.824 523.959,306.997 527.154,306.294 527.01,276.123 		"/>
	</g>
	<g>
		<path style="fill:#92E3A9;" d="M634.566,308.311c0,9.812-5.804,17.766-12.964,17.766c-7.16,0-12.964-7.954-12.964-17.766
			c0-9.812,5.804-43.534,12.964-43.534C628.762,264.777,634.566,298.499,634.566,308.311z"/>
		<path style="opacity:0.2;" d="M634.566,308.311c0,9.812-5.804,17.766-12.964,17.766c-7.16,0-12.964-7.954-12.964-17.766
			c0-9.812,5.804-43.534,12.964-43.534C628.762,264.777,634.566,298.499,634.566,308.311z"/>
		<polygon style="fill:#263238;" points="628.871,313.444 624.945,314.896 625.733,312.533 623.856,315.299 621.982,315.992 
			621.849,308.233 628.668,299.172 625.013,302.827 625.632,300.285 623.883,303.957 621.811,306.03 621.602,293.906 
			620.859,311.588 614.396,304.739 617.946,309.565 614.598,309.193 618.733,310.635 620.782,313.42 620.423,321.945 
			618.04,320.328 620.349,323.709 619.732,340.218 622.111,339.695 622.004,317.23 		"/>
	</g>
	<g>
		<path style="fill:#92E3A9;" d="M694.797,339.707c0,9.812-5.804,17.766-12.964,17.766s-12.964-7.954-12.964-17.766
			s5.804-43.534,12.964-43.534S694.797,329.895,694.797,339.707z"/>
		<path style="opacity:0.2;" d="M694.797,339.707c0,9.812-5.804,17.766-12.964,17.766s-12.964-7.954-12.964-17.766
			s5.804-43.534,12.964-43.534S694.797,329.895,694.797,339.707z"/>
		<polygon style="fill:#263238;" points="689.102,344.84 685.176,346.292 685.964,343.929 684.087,346.695 682.213,347.388 
			682.079,339.628 688.899,330.567 685.244,334.222 685.862,331.681 684.114,335.352 682.041,337.425 681.832,325.302 
			681.089,342.983 674.627,336.135 678.177,340.96 674.829,340.588 678.964,342.031 681.013,344.815 680.654,353.34 
			678.271,351.723 680.58,355.105 679.963,371.614 682.342,371.09 682.234,348.625 		"/>
	</g>
</g>
<g id="Road">
	<g>
		<g>
			<path style="fill:#BABABA;stroke:#263238;stroke-miterlimit:10;" d="M706.46,361.183l-21.11-0.209l-72.329-31.793l-42.921-16.691
				l-42.126-14.307l-109.528-78.414l-29.584-9.506l19.093,41.025l173.124,203.421c4.828-1.985,9.619-4.061,14.363-6.239
				C638.677,428.615,678.307,399.775,706.46,361.183z"/>
			<path style="fill:#E5E5E5;stroke:#263238;stroke-miterlimit:10;" d="M267.156,243.94l-108.32,53.713L31.392,336.995
				c2.205,5.756,4.673,11.426,7.449,16.987c24.349,48.757,70.878,79.375,120.304,99.036c21.03,8.365,42.79,14.853,64.832,19.946
				c109.315,25.26,228.112,26.98,335.082-9.939c12.353-4.263,24.509-9.1,36.385-14.555c27.767-12.752,54.046-29.214,76.756-49.58
				c-48.885-8.62-99.027-11.404-143.509-33.596c-11.253-5.614-32.947-22.75-41.924-31.942c-6.706-6.866-12.625-15.953-19.298-22.626
				c-0.012-0.012-14.392-18.613-17.967-21.295c-3.581-2.686-16.508-24.301-16.508-24.301l-6.575-10.921l-9.119-28.487
				c0,0-16.317-12.712-22.584-15.398c-6.267-2.686-31.309-1.026-31.309-1.026s-30.899,5.101-34.479,5.996
				c-3.581,0.895-29.542,6.266-34.018,8.057C290.432,225.14,267.156,243.94,267.156,243.94z"/>
			<path style="fill:#263238;stroke:#263238;stroke-miterlimit:10;" d="M528.69,365.294c-11.253-5.614-32.947-22.75-41.924-31.942
				c-6.706-6.866-12.625-15.953-19.298-22.626c-0.012-0.012-14.392-18.613-17.967-21.295c-3.581-2.686-16.508-24.301-16.508-24.301
				l-1.375-2.284l-6.277-2.923c1.854,5.42,3.665,11.359,3.53,13.536c-0.27,4.378-18.978,27.271-20.136,39.589
				c-1.159,12.318,28.122,27.624,46.755,38.271c11.004,6.288,59.14,16.521,96.714,23.847
				C544.222,372.362,536.369,369.125,528.69,365.294z"/>
			<g>
				<path style="fill:#92E3A9;stroke:#263238;stroke-miterlimit:10;" d="M559.058,463.025c12.353-4.263,24.509-9.1,36.385-14.555
					c20.34-9.341,39.874-20.682,57.799-34.081c-16.076-5.178-32.172-10.29-48.32-15.24
					c-56.378-17.281-115.699-35.339-167.948-62.821c-8.013-4.208-31.602-16.801-22.265-28.834
					c4.54-5.851,10.12-10.928,13.902-17.296c8.997-15.149-0.749-33.54-14.091-42.537c-14.954-10.084-33.754-9.891-50.915-7.399
					c-10.883,1.58-21.616,4.146-32.197,7.115c-16.349,4.587-32.143,10.624-48.214,16.032c-0.876,0.295-1.75,0.597-2.638,0.858
					c-28.081,8.259-47.93,16.554-67.312,23.538c-45.838,16.518-112.175,41.766-156.603,55.682
					c87.736-22.488,196.03-66.38,283.52-89.806c10.021-2.683,25.135-5.561,29.773,8.817c7.333,22.737-46.367,47.735-71.901,61.941
					c-8.045,4.476-15.683,10.368-19.947,18.527c-8.073,15.45-0.822,32.967,9.893,45.042
					c37.266,41.997,87.674,76.005,139.679,101.619C472.432,486.194,516.675,477.653,559.058,463.025z"/>
				<path style="fill:#FFFFFF;stroke:#263238;stroke-miterlimit:10;" d="M634.533,399.835c-15.058-4.644-30.188-9.106-45.229-13.606
					c-30.098-9.018-60.052-18.313-89.3-29.396c-14.62-5.54-29.058-11.523-43.182-18.147l-5.29-2.497
					c-1.765-0.829-3.492-1.732-5.24-2.595c-3.478-1.745-7.023-3.465-10.324-5.314c-3.32-1.848-6.535-3.831-9.457-6.041
					c-2.893-2.192-5.586-4.69-7.123-7.291c-0.76-1.292-1.146-2.53-1.139-3.6c0.01-1.065,0.384-2.128,1.211-3.263
					c2.149-2.865,4.819-5.779,7.412-8.823c2.607-3.08,5.22-6.319,7.312-10.231c2.102-3.962,3.231-8.488,3.249-12.948
					c0.037-4.47-0.952-8.827-2.579-12.814c-1.63-3.996-3.894-7.65-6.575-10.921c-2.686-3.27-5.794-6.174-9.271-8.606
					c-3.466-2.419-7.226-4.344-11.141-5.796c-7.844-2.929-16.147-3.909-24.24-3.874c-8.119,0.054-16.094,1.094-23.927,2.516
					c-7.843,1.432-15.568,3.316-23.197,5.438c-7.632,2.113-15.192,4.54-22.647,7.121c-7.463,2.576-14.852,5.289-22.25,7.921
					l-5.55,1.957c-1.893,0.655-3.599,1.257-5.522,1.837c-3.774,1.158-7.539,2.344-11.284,3.586
					c-15.007,4.907-29.723,10.613-44.386,16.268c-7.326,2.827-14.708,5.515-22.089,8.25l-22.134,8.182l-44.268,16.364l0.831,2.266
					l88.734-32.19c14.78-5.421,29.504-10.851,44.486-15.477c3.74-1.172,7.496-2.288,11.26-3.375c1.851-0.523,3.87-1.19,5.702-1.792
					l5.608-1.874c7.466-2.518,14.888-5.105,22.337-7.538c7.452-2.442,14.915-4.702,22.478-6.662
					c7.558-1.968,15.162-3.688,22.819-4.954c7.657-1.261,15.361-2.123,22.983-2.045c7.604,0.091,15.168,1.152,22.051,3.859
					c3.436,1.338,6.702,3.087,9.652,5.22c2.934,2.124,5.585,4.683,7.842,7.528c4.506,5.661,7.477,12.66,7.307,19.497
					c-0.078,3.405-0.968,6.708-2.596,9.671c-1.667,3.013-4.037,5.932-6.56,8.796c-2.548,2.906-5.267,5.737-7.902,9.121
					c-0.768,1.014-1.457,2.173-1.964,3.468c-0.508,1.293-0.799,2.729-0.844,4.154c-0.072,2.884,0.872,5.501,2.061,7.606
					c2.455,4.22,5.72,7.114,8.999,9.738c3.313,2.59,6.78,4.795,10.295,6.832c3.531,2.052,7.039,3.821,10.56,5.663
					c1.764,0.907,3.508,1.855,5.288,2.728l5.336,2.628c14.248,6.972,28.794,13.283,43.498,19.134
					c29.417,11.706,59.449,21.567,89.463,31.105c15.024,4.767,29.995,9.453,44.924,14.329c6.208,2.019,12.41,4.064,18.611,6.112
					c3.967-2.869,7.857-5.839,11.665-8.906C652.383,405.36,643.466,402.579,634.533,399.835z"/>
				<g>
					<path style="fill:#FFFFFF;" d="M394.379,294.746c1.377-1.604,2.693-3.285,3.909-5.045l-5.346,0.435
						c-0.537,0.638-1.082,1.269-1.645,1.885c-5.097,5.528-11.011,10.334-17.239,14.746l8.626-0.702
						C386.835,302.607,390.784,298.88,394.379,294.746z"/>
					<path style="fill:#FFFFFF;" d="M365.584,246.177c5.196-0.393,10.436-0.379,15.518,0.421c0.269,0.042,0.538,0.096,0.807,0.142
						l5.073-1.117c-1.855-0.478-3.735-0.81-5.618-1.012c-5.337-0.541-10.664-0.253-15.897,0.431
						c-5.228,0.738-10.396,1.834-15.407,3.418C355.185,247.324,360.379,246.554,365.584,246.177z"/>
					<path style="fill:#FFFFFF;" d="M347.129,323.256c-1.161,0.638-2.238,1.202-3.518,1.935c-1.231,0.718-2.442,1.519-3.607,2.439
						c-2.099,1.671-4.137,3.821-5.398,6.611l7.738-0.63c0.438-0.466,0.914-0.917,1.427-1.347c1.746-1.493,3.821-2.617,6.181-3.998
						c2.29-1.317,4.549-2.694,6.814-4.059c4.508-2.772,8.966-5.633,13.333-8.648c1.898-1.322,3.782-2.676,5.647-4.06l-9.97,0.812
						c-3.879,2.47-7.822,4.852-11.819,7.149C351.688,320.736,349.426,322.024,347.129,323.256z"/>
					<path style="fill:#FFFFFF;" d="M399.945,259.608c0.189,0.602,0.399,1.198,0.573,1.802c0.341,1.209,0.638,2.427,0.834,3.655
						c0.106,0.618,0.189,1.239,0.249,1.859l3.159-0.696c-0.08-0.581-0.168-1.161-0.281-1.733c-0.26-1.356-0.625-2.682-1.035-3.986
						c-0.209-0.651-0.452-1.286-0.678-1.93c-0.26-0.649-0.534-1.305-0.859-1.933c-0.164-0.326-0.363-0.633-0.546-0.95l-2.919,0.643
						c0.304,0.511,0.581,1.038,0.828,1.58C399.528,258.467,399.736,259.032,399.945,259.608z"/>
					<path style="fill:#FFFFFF;" d="M396.579,250.141c-1.432-1.127-2.999-2.028-4.624-2.771l-4.079,0.898
						c2.588,0.918,5.007,2.169,7.043,3.907c0.623,0.528,1.186,1.113,1.72,1.721l3.052-0.672
						C398.77,252.079,397.726,251.037,396.579,250.141z"/>
					<path style="fill:#FFFFFF;" d="M403.025,280.897c0.992-2.586,1.664-5.323,1.91-8.105c0.114-1.258,0.129-2.521,0.074-3.778
						l-3.309,0.729c-0.047,3.362-0.739,6.692-2.064,9.809c-1.125,2.685-2.629,5.217-4.367,7.612l4.894-0.398
						C401.263,284.898,402.236,282.948,403.025,280.897z"/>
					<path style="fill:#FFFFFF;" d="M582.583,454.09c-1.715-0.554-3.434-1.101-5.148-1.658
						c-15.627-5.076-31.203-10.309-46.728-15.677l-28.498,2.32c3.864,1.502,7.728,3.002,11.6,4.481
						c16.326,6.231,32.736,12.226,49.193,18.082C569.591,459.29,576.123,456.776,582.583,454.09z"/>
					<path style="fill:#FFFFFF;" d="M479.38,430.023l26.131-2.127c-15.57-5.577-31.07-11.336-46.452-17.372
						c-16.811-6.612-33.505-13.522-49.875-21.05l-16.697,1.359c1.733,0.908,3.466,1.816,5.207,2.705
						c18.845,9.597,38.092,18.242,57.484,26.487C463.216,423.435,471.289,426.753,479.38,430.023z"/>
					<path style="fill:#FFFFFF;" d="M338.397,352.688c1.713,2.294,3.605,4.349,5.574,6.275c3.949,3.841,8.198,7.19,12.549,10.332
						c4.356,3.136,8.832,6.044,13.367,8.826c3.021,1.848,6.077,3.624,9.146,5.371l15.033-1.224
						c-6.866-3.402-13.642-6.956-20.25-10.756c-4.483-2.585-8.889-5.282-13.132-8.164c-4.236-2.883-8.332-5.949-12.003-9.333
						c-1.829-1.692-3.546-3.469-5.025-5.343c-1.476-1.868-2.708-3.855-3.408-5.839c-0.071-0.202-0.131-0.402-0.19-0.602
						l-6.409,0.522c0.135,0.716,0.309,1.416,0.522,2.089C335.142,347.845,336.697,350.394,338.397,352.688z"/>
				</g>
			</g>
		</g>
		<path style="fill:#263238;stroke:#263238;stroke-miterlimit:10;" d="M38.841,353.982c24.349,48.757,70.878,79.375,120.304,99.036
			c21.03,8.365,42.79,14.853,64.832,19.946c35.607,8.228,72.222,13.938,109.105,16.649c-10.594-4.694-21.22-9.283-23.566-9.869
			c-4.986-1.246-9.349-6.856-9.349-6.856l-4.986-11.842l14.335-24.306l-55.469-22.437l-52.976-20.567l4.986-12.465
			c0,0,1.246-7.479,2.493-9.349c1.246-1.87,8.102-4.986,8.102-4.986l12.465-6.232l4.363-7.479l-29.916-5.609
			c0,0,38.018-19.32,41.134-20.567c3.116-1.246,27.423-11.218,29.292-11.842c1.87-0.623-3.116-4.986-6.233-5.609
			c-3.116-0.623-46.743-4.363-48.613-4.363c-1.87,0-18.697-2.493-18.697-2.493l-97.226-26.799l-21.894-23.214l-42.923-26.023
			l-20.222-24.2c-3.878,25.267-3.402,50.951-0.502,76.307C20.664,304.905,27.065,330.401,38.841,353.982z"/>
	</g>
</g>
</svg>
